<svg width="1392" height="995" viewBox="0 0 1392 995" fill="none" xmlns="http://www.w3.org/2000/svg">
<path d="M182.588 73.2421C183.165 71.3565 185.835 71.3565 186.412 73.2421L187.771 77.678C188.029 78.5184 188.805 79.0922 189.684 79.0922L194.32 79.0922C196.229 79.0922 197.053 81.5113 195.541 82.6764L191.591 85.7201C190.931 86.2287 190.656 87.0933 190.9 87.8901L192.36 92.6569C192.931 94.5204 190.771 96.0166 189.227 94.8269L185.721 92.1251C185.001 91.5707 183.999 91.5707 183.279 92.1251L179.773 94.8269C178.229 96.0166 176.069 94.5204 176.64 92.6569L178.1 87.8901C178.344 87.0933 178.069 86.2287 177.409 85.7201L173.459 82.6764C171.947 81.5113 172.771 79.0922 174.68 79.0922L179.316 79.0922C180.195 79.0922 180.971 78.5184 181.229 77.678L182.588 73.2421Z" fill="#FFB6C1"/>
<path d="M1313.59 140.242C1314.17 138.357 1316.83 138.357 1317.41 140.242L1318.77 144.678C1319.03 145.518 1319.8 146.092 1320.68 146.092L1325.32 146.092C1327.23 146.092 1328.05 148.511 1326.54 149.676L1322.59 152.72C1321.93 153.229 1321.66 154.093 1321.9 154.89L1323.36 159.657C1323.93 161.52 1321.77 163.017 1320.23 161.827L1316.72 159.125C1316 158.571 1315 158.571 1314.28 159.125L1310.77 161.827C1309.23 163.017 1307.07 161.52 1307.64 159.657L1309.1 154.89C1309.34 154.093 1309.07 153.229 1308.41 152.72L1304.46 149.676C1302.95 148.511 1303.77 146.092 1305.68 146.092L1310.32 146.092C1311.2 146.092 1311.97 145.518 1312.23 144.678L1313.59 140.242Z" fill="#88D3F0"/>
<path d="M762.588 365.242C763.165 363.357 765.835 363.357 766.412 365.242L767.771 369.678C768.029 370.518 768.805 371.092 769.684 371.092L774.32 371.092C776.229 371.092 777.053 373.511 775.541 374.676L771.591 377.72C770.931 378.229 770.656 379.093 770.9 379.89L772.36 384.657C772.931 386.52 770.771 388.017 769.227 386.827L765.721 384.125C765.001 383.571 763.999 383.571 763.279 384.125L759.773 386.827C758.229 388.017 756.069 386.52 756.64 384.657L758.1 379.89C758.344 379.093 758.069 378.229 757.409 377.72L753.459 374.676C751.947 373.511 752.771 371.092 754.68 371.092L759.316 371.092C760.195 371.092 760.971 370.518 761.229 369.678L762.588 365.242Z" fill="#88D3F0"/>
<path d="M1078.08 82.3872C1078.65 80.4866 1081.35 80.4866 1081.92 82.3872L1082.27 83.5573C1082.52 84.4034 1083.3 84.9828 1084.18 84.9828H1085.64C1087.54 84.9828 1088.37 87.3802 1086.87 88.5544L1085.43 89.6924C1084.78 90.2005 1084.51 91.0516 1084.75 91.8385L1085.24 93.4596C1085.8 95.3308 1083.62 96.814 1082.08 95.6058L1081.24 94.9392C1080.51 94.368 1079.49 94.368 1078.76 94.9392L1077.92 95.6058C1076.38 96.814 1074.2 95.3308 1074.76 93.4596L1075.25 91.8385C1075.49 91.0516 1075.22 90.2005 1074.57 89.6924L1073.13 88.5544C1071.63 87.3802 1072.46 84.9828 1074.36 84.9828H1075.82C1076.7 84.9828 1077.48 84.4034 1077.73 83.5573L1078.08 82.3872Z" fill="#FFB6C1"/>
<path d="M1285.08 318.387C1285.65 316.487 1288.35 316.487 1288.92 318.387L1289.27 319.557C1289.52 320.403 1290.3 320.983 1291.18 320.983H1292.64C1294.54 320.983 1295.37 323.38 1293.87 324.554L1292.43 325.692C1291.78 326.2 1291.51 327.052 1291.75 327.839L1292.24 329.46C1292.8 331.331 1290.62 332.814 1289.08 331.606L1288.24 330.939C1287.51 330.368 1286.49 330.368 1285.76 330.939L1284.92 331.606C1283.38 332.814 1281.2 331.331 1281.76 329.46L1282.25 327.839C1282.49 327.052 1282.22 326.2 1281.57 325.692L1280.13 324.554C1278.63 323.38 1279.46 320.983 1281.36 320.983H1282.82C1283.7 320.983 1284.48 320.403 1284.73 319.557L1285.08 318.387Z" fill="#FFB6C1"/>
<path d="M589.084 459.387C589.654 457.487 592.346 457.487 592.916 459.387L593.267 460.557C593.52 461.403 594.299 461.983 595.182 461.983H596.638C598.536 461.983 599.367 464.38 597.875 465.554L596.429 466.692C595.784 467.2 595.514 468.052 595.75 468.839L596.237 470.46C596.798 472.331 594.619 473.814 593.084 472.606L592.237 471.939C591.511 471.368 590.489 471.368 589.763 471.939L588.916 472.606C587.381 473.814 585.202 472.331 585.763 470.46L586.25 468.839C586.486 468.052 586.216 467.2 585.571 466.692L584.125 465.554C582.633 464.38 583.464 461.983 585.362 461.983H586.818C587.701 461.983 588.48 461.403 588.733 460.557L589.084 459.387Z" fill="#FFB6C1"/>
<path d="M750.084 198.387C750.654 196.487 753.346 196.487 753.916 198.387L754.267 199.557C754.52 200.403 755.299 200.983 756.182 200.983H757.638C759.536 200.983 760.367 203.38 758.875 204.554L757.429 205.692C756.784 206.2 756.514 207.052 756.75 207.839L757.237 209.46C757.798 211.331 755.619 212.814 754.084 211.606L753.237 210.939C752.511 210.368 751.489 210.368 750.763 210.939L749.916 211.606C748.381 212.814 746.202 211.331 746.763 209.46L747.25 207.839C747.486 207.052 747.216 206.2 746.571 205.692L745.125 204.554C743.633 203.38 744.464 200.983 746.362 200.983H747.818C748.701 200.983 749.48 200.403 749.733 199.557L750.084 198.387Z" fill="#D9D6A8"/>
<path d="M553.588 306.242C554.165 304.357 556.835 304.357 557.412 306.242L558.771 310.678C559.029 311.518 559.805 312.092 560.684 312.092L565.32 312.092C567.229 312.092 568.053 314.511 566.541 315.676L562.591 318.72C561.931 319.229 561.656 320.093 561.9 320.89L563.36 325.657C563.931 327.52 561.771 329.017 560.227 327.827L556.721 325.125C556.001 324.571 554.999 324.571 554.279 325.125L550.773 327.827C549.229 329.017 547.069 327.52 547.64 325.657L549.1 320.89C549.344 320.093 549.069 319.229 548.409 318.72L544.459 315.676C542.947 314.511 543.771 312.092 545.68 312.092L550.316 312.092C551.195 312.092 551.971 311.518 552.229 310.678L553.588 306.242Z" fill="#FFB6C1"/>
<path d="M64.5877 176.242C65.1654 174.357 67.8346 174.357 68.4123 176.242L69.7712 180.678C70.0287 181.518 70.8046 182.092 71.6835 182.092L76.3203 182.092C78.2292 182.092 79.0531 184.511 77.5411 185.676L73.5913 188.72C72.9312 189.229 72.6556 190.093 72.8997 190.89L74.3601 195.657C74.931 197.52 72.7709 199.017 71.227 197.827L67.7208 195.125C67.0013 194.571 65.9987 194.571 65.2792 195.125L61.773 197.827C60.2291 199.017 58.069 197.52 58.6399 195.657L60.1003 190.89C60.3444 190.093 60.0688 189.229 59.4087 188.72L55.4589 185.676C53.9469 184.511 54.7708 182.092 56.6797 182.092L61.3165 182.092C62.1954 182.092 62.9713 181.518 63.2288 180.678L64.5877 176.242Z" fill="#D9D6A8"/>
<path d="M420.588 374.242C421.165 372.357 423.835 372.357 424.412 374.242L425.771 378.678C426.029 379.518 426.805 380.092 427.684 380.092L432.32 380.092C434.229 380.092 435.053 382.511 433.541 383.676L429.591 386.72C428.931 387.229 428.656 388.093 428.9 388.89L430.36 393.657C430.931 395.52 428.771 397.017 427.227 395.827L423.721 393.125C423.001 392.571 421.999 392.571 421.279 393.125L417.773 395.827C416.229 397.017 414.069 395.52 414.64 393.657L416.1 388.89C416.344 388.093 416.069 387.229 415.409 386.72L411.459 383.676C409.947 382.511 410.771 380.092 412.68 380.092L417.316 380.092C418.195 380.092 418.971 379.518 419.229 378.678L420.588 374.242Z" fill="#D9D6A8"/>
<path d="M1134.59 282.242C1135.17 280.357 1137.83 280.357 1138.41 282.242L1139.77 286.678C1140.03 287.518 1140.8 288.092 1141.68 288.092L1146.32 288.092C1148.23 288.092 1149.05 290.511 1147.54 291.676L1143.59 294.72C1142.93 295.229 1142.66 296.093 1142.9 296.89L1144.36 301.657C1144.93 303.52 1142.77 305.017 1141.23 303.827L1137.72 301.125C1137 300.571 1136 300.571 1135.28 301.125L1131.77 303.827C1130.23 305.017 1128.07 303.52 1128.64 301.657L1130.1 296.89C1130.34 296.093 1130.07 295.229 1129.41 294.72L1125.46 291.676C1123.95 290.511 1124.77 288.092 1126.68 288.092L1131.32 288.092C1132.2 288.092 1132.97 287.518 1133.23 286.678L1134.59 282.242Z" fill="#D9D6A8"/>
<path d="M696.578 46.6875C697.133 44.7575 699.867 44.7575 700.422 46.6875L700.666 47.5353C700.912 48.3924 701.696 48.9828 702.588 48.9828H703.851C705.729 48.9828 706.571 51.3366 705.12 52.5283L703.694 53.7C703.077 54.2065 702.82 55.0311 703.041 55.798L703.484 57.3396C704.026 59.2263 701.809 60.6835 700.292 59.4376L699.769 59.0081C699.032 58.4022 697.968 58.4022 697.231 59.0081L696.708 59.4376C695.191 60.6835 692.974 59.2263 693.516 57.3396L693.959 55.798C694.18 55.0311 693.923 54.2065 693.306 53.7L691.88 52.5283C690.429 51.3366 691.271 48.9828 693.149 48.9828H694.412C695.304 48.9828 696.088 48.3924 696.334 47.5353L696.578 46.6875Z" fill="#88D3F0"/>
<path d="M69.5778 382.687C70.1326 380.757 72.8674 380.757 73.4222 382.687L73.6659 383.535C73.9122 384.392 74.6962 384.983 75.588 384.983H76.8508C78.7285 384.983 79.5712 387.337 78.1202 388.528L76.6936 389.7C76.0769 390.206 75.8204 391.031 76.0408 391.798L76.4839 393.34C77.0262 395.226 74.8093 396.684 73.2924 395.438L72.7694 395.008C72.0316 394.402 70.9684 394.402 70.2306 395.008L69.7076 395.438C68.1907 396.684 65.9738 395.226 66.5161 393.34L66.9592 391.798C67.1796 391.031 66.9231 390.206 66.3064 389.7L64.8798 388.528C63.4288 387.337 64.2715 384.983 66.1492 384.983H67.412C68.3038 384.983 69.0878 384.392 69.3341 383.535L69.5778 382.687Z" fill="#88D3F0"/>
<circle cx="286" cy="41" r="16" fill="#445584"/>
<circle cx="1162" cy="102" r="9" fill="#445584"/>
<circle cx="127" cy="309" r="16" fill="#445584"/>
<circle cx="839" cy="92" r="16" fill="#445584"/>
<circle cx="1291" cy="16" r="16" fill="#445584"/>
<circle cx="1101" cy="376" r="9" fill="#445584"/>
<circle cx="669" cy="393" r="9" fill="#445584"/>
<path d="M552 68.5C552 73.4706 547.971 77.5 543 77.5C538.029 77.5 534 73.4706 534 68.5C534 63.5294 538.029 59.5 543 59.5C547.971 59.5 552 63.5294 552 68.5Z" fill="#445584"/>
<circle cx="83" cy="34" r="9" fill="#445584"/>
<circle cx="1351" cy="448" r="16" fill="#445584"/>
<circle cx="143" cy="466" r="9" fill="#445584"/>
<circle cx="346" cy="473" r="16" fill="#445584"/>
<path d="M242.578 329.687C243.133 327.757 245.867 327.757 246.422 329.687L246.666 330.535C246.912 331.392 247.696 331.983 248.588 331.983H249.851C251.729 331.983 252.571 334.337 251.12 335.528L249.694 336.7C249.077 337.206 248.82 338.031 249.041 338.798L249.484 340.34C250.026 342.226 247.809 343.684 246.292 342.438L245.769 342.008C245.032 341.402 243.968 341.402 243.231 342.008L242.708 342.438C241.191 343.684 238.974 342.226 239.516 340.34L239.959 338.798C240.18 338.031 239.923 337.206 239.306 336.7L237.88 335.528C236.429 334.337 237.271 331.983 239.149 331.983H240.412C241.304 331.983 242.088 331.392 242.334 330.535L242.578 329.687Z" fill="#88D3F0"/>
<path d="M612 500.5C612 505.471 607.971 509.5 603 509.5C598.029 509.5 594 505.471 594 500.5C594 495.529 598.029 491.5 603 491.5C607.971 491.5 612 495.529 612 500.5Z" fill="#445584"/>
<path d="M242.588 505.242C243.165 503.357 245.835 503.357 246.412 505.242L247.771 509.678C248.029 510.518 248.805 511.092 249.684 511.092L254.32 511.092C256.229 511.092 257.053 513.511 255.541 514.676L251.591 517.72C250.931 518.229 250.656 519.093 250.9 519.89L252.36 524.657C252.931 526.52 250.771 528.017 249.227 526.827L245.721 524.125C245.001 523.571 243.999 523.571 243.279 524.125L239.773 526.827C238.229 528.017 236.069 526.52 236.64 524.657L238.1 519.89C238.344 519.093 238.069 518.229 237.409 517.72L233.459 514.676C231.947 513.511 232.771 511.092 234.68 511.092L239.316 511.092C240.195 511.092 240.971 510.518 241.229 509.678L242.588 505.242Z" fill="#FFB6C1"/>
<circle cx="899" cy="524" r="16" fill="#445584"/>
<path d="M1138.08 514.387C1138.65 512.487 1141.35 512.487 1141.92 514.387L1142.27 515.557C1142.52 516.403 1143.3 516.983 1144.18 516.983H1145.64C1147.54 516.983 1148.37 519.38 1146.87 520.554L1145.43 521.692C1144.78 522.2 1144.51 523.052 1144.75 523.839L1145.24 525.46C1145.8 527.331 1143.62 528.814 1142.08 527.606L1141.24 526.939C1140.51 526.368 1139.49 526.368 1138.76 526.939L1137.92 527.606C1136.38 528.814 1134.2 527.331 1134.76 525.46L1135.25 523.839C1135.49 523.052 1135.22 522.2 1134.57 521.692L1133.13 520.554C1131.63 519.38 1132.46 516.983 1134.36 516.983H1135.82C1136.7 516.983 1137.48 516.403 1137.73 515.557L1138.08 514.387Z" fill="#FFB6C1"/>
<circle cx="1222" cy="534" r="9" fill="#445584"/>
<path d="M1373.59 572.242C1374.17 570.357 1376.83 570.357 1377.41 572.242L1378.77 576.678C1379.03 577.518 1379.8 578.092 1380.68 578.092L1385.32 578.092C1387.23 578.092 1388.05 580.511 1386.54 581.676L1382.59 584.72C1381.93 585.229 1381.66 586.093 1381.9 586.89L1383.36 591.657C1383.93 593.52 1381.77 595.017 1380.23 593.827L1376.72 591.125C1376 590.571 1375 590.571 1374.28 591.125L1370.77 593.827C1369.23 595.017 1367.07 593.52 1367.64 591.657L1369.1 586.89C1369.34 586.093 1369.07 585.229 1368.41 584.72L1364.46 581.676C1362.95 580.511 1363.77 578.092 1365.68 578.092L1370.32 578.092C1371.2 578.092 1371.97 577.518 1372.23 576.678L1373.59 572.242Z" fill="#88D3F0"/>
<path d="M124.588 608.242C125.165 606.357 127.835 606.357 128.412 608.242L129.771 612.678C130.029 613.518 130.805 614.092 131.684 614.092L136.32 614.092C138.229 614.092 139.053 616.511 137.541 617.676L133.591 620.72C132.931 621.229 132.656 622.093 132.9 622.89L134.36 627.657C134.931 629.52 132.771 631.017 131.227 629.827L127.721 627.125C127.001 626.571 125.999 626.571 125.279 627.125L121.773 629.827C120.229 631.017 118.069 629.52 118.64 627.657L120.1 622.89C120.344 622.093 120.069 621.229 119.409 620.72L115.459 617.676C113.947 616.511 114.771 614.092 116.68 614.092L121.316 614.092C122.195 614.092 122.971 613.518 123.229 612.678L124.588 608.242Z" fill="#D9D6A8"/>
<path d="M810.084 630.387C810.654 628.487 813.346 628.487 813.916 630.387L814.267 631.557C814.52 632.403 815.299 632.983 816.182 632.983H817.638C819.536 632.983 820.367 635.38 818.875 636.554L817.429 637.692C816.784 638.2 816.514 639.052 816.75 639.839L817.237 641.46C817.798 643.331 815.619 644.814 814.084 643.606L813.237 642.939C812.511 642.368 811.489 642.368 810.763 642.939L809.916 643.606C808.381 644.814 806.202 643.331 806.763 641.46L807.25 639.839C807.486 639.052 807.216 638.2 806.571 637.692L805.125 636.554C803.633 635.38 804.464 632.983 806.362 632.983H807.818C808.701 632.983 809.48 632.403 809.733 631.557L810.084 630.387Z" fill="#D9D6A8"/>
<path d="M416.588 625.242C417.165 623.357 419.835 623.357 420.412 625.242L421.771 629.678C422.029 630.518 422.805 631.092 423.684 631.092L428.32 631.092C430.229 631.092 431.053 633.511 429.541 634.676L425.591 637.72C424.931 638.229 424.656 639.093 424.9 639.89L426.36 644.657C426.931 646.52 424.771 648.017 423.227 646.827L419.721 644.125C419.001 643.571 417.999 643.571 417.279 644.125L413.773 646.827C412.229 648.017 410.069 646.52 410.64 644.657L412.1 639.89C412.344 639.093 412.069 638.229 411.409 637.72L407.459 634.676C405.947 633.511 406.771 631.092 408.68 631.092L413.316 631.092C414.195 631.092 414.971 630.518 415.229 629.678L416.588 625.242Z" fill="#88D3F0"/>
</svg>
