<svg width="15" height="15" viewBox="0 0 15 15" fill="none" xmlns="http://www.w3.org/2000/svg">
<path d="M5.57783 1.68748C6.13257 -0.24254 8.86743 -0.24254 9.42217 1.68748L9.66585 2.53527C9.9122 3.39235 10.6962 3.98278 11.588 3.98278H12.8508C14.7285 3.98278 15.5712 6.33657 14.1202 7.52832L12.6936 8.69999C12.0769 9.20648 11.8204 10.0311 12.0408 10.798L12.4839 12.3396C13.0262 14.2263 10.8093 15.6835 9.29237 14.4376L8.76937 14.0081C8.03159 13.4022 6.96841 13.4022 6.23063 14.0081L5.70763 14.4376C4.19066 15.6835 1.97382 14.2263 2.51609 12.3396L2.95919 10.798C3.17963 10.0311 2.92306 9.20648 2.30638 8.69999L0.87979 7.52832C-0.571246 6.33657 0.271457 3.98278 2.14916 3.98278H3.41197C4.30376 3.98278 5.08779 3.39235 5.33415 2.53527L5.57783 1.68748Z" fill="#88D3F0"/>
</svg>
