<svg width="34" height="34" viewBox="0 0 34 34" fill="none" xmlns="http://www.w3.org/2000/svg">
<g clip-path="url(#clip0_6_231)">
<path d="M12.75 26.9167C5.66671 29.0417 5.66671 23.375 2.83337 22.6667M22.6667 31.1667V25.6842C22.7198 25.0087 22.6286 24.3296 22.399 23.6921C22.1694 23.0545 21.8067 22.4732 21.335 21.9867C25.7834 21.4908 30.4584 19.805 30.4584 12.07C30.458 10.0921 29.6972 8.19004 28.3334 6.75751C28.9792 5.02706 28.9335 3.11434 28.2059 1.41668C28.2059 1.41668 26.5342 0.920847 22.6667 3.51335C19.4197 2.63334 15.997 2.63334 12.75 3.51335C8.88254 0.920847 7.21087 1.41668 7.21087 1.41668C6.48324 3.11434 6.43758 5.02706 7.08337 6.75751C5.70939 8.20067 4.94778 10.1199 4.95837 12.1125C4.95837 19.7908 9.63337 21.4767 14.0817 22.0292C13.6156 22.5108 13.2562 23.0852 13.0267 23.7149C12.7973 24.3446 12.703 25.0156 12.75 25.6842V31.1667" stroke="#94ADF1" stroke-width="4" stroke-linecap="round" stroke-linejoin="round"/>
</g>
<defs>
<clipPath id="clip0_6_231">
<rect width="34" height="34" fill="white"/>
</clipPath>
</defs>
</svg>
