<svg width="25" height="25" viewBox="0 0 25 25" fill="none" xmlns="http://www.w3.org/2000/svg">
<path d="M10.5877 2.24207C11.1654 0.356516 13.8346 0.356514 14.4123 2.24207L15.7712 6.67803C16.0287 7.5184 16.8046 8.0922 17.6835 8.0922L22.3203 8.0922C24.2292 8.0922 25.0531 10.5113 23.5411 11.6764L19.5913 14.7201C18.9312 15.2287 18.6556 16.0933 18.8997 16.8901L20.3601 21.6569C20.931 23.5204 18.7709 25.0166 17.227 23.8269L13.7208 21.1251C13.0013 20.5707 11.9987 20.5707 11.2792 21.1251L7.77298 23.8269C6.22914 25.0166 4.06904 23.5204 4.63994 21.6569L6.10026 16.8901C6.34435 16.0933 6.06882 15.2287 5.40874 14.7201L1.45892 11.6764C-0.0530939 10.5113 0.770832 8.0922 2.67968 8.0922L7.31648 8.0922C8.19539 8.0922 8.97131 7.5184 9.22875 6.67803L10.5877 2.24207Z" fill="#FFB6C1"/>
</svg>
