<svg width="16" height="17" viewBox="0 0 16 17" fill="none" xmlns="http://www.w3.org/2000/svg">
<path d="M6.08431 2.38722C6.65434 0.486639 9.34566 0.486639 9.91569 2.38722L10.2666 3.55735C10.5204 4.40338 11.2991 4.98278 12.1823 4.98278H13.638C15.5365 4.98278 16.3668 7.38016 14.875 8.55437L13.4291 9.69238C12.7836 10.2005 12.5144 11.0516 12.7504 11.8385L13.2366 13.4596C13.7978 15.3308 11.619 16.814 10.0839 15.6058L9.23698 14.9392C8.51124 14.368 7.48876 14.368 6.76302 14.9392L5.91607 15.6058C4.38101 16.814 2.20219 15.3308 2.7634 13.4596L3.24961 11.8385C3.48562 11.0516 3.21644 10.2005 2.5709 9.69238L1.12505 8.55437C-0.366786 7.38016 0.463522 4.98278 2.36203 4.98278H3.81766C4.70093 4.98278 5.47961 4.40338 5.73336 3.55734L6.08431 2.38722Z" fill="#D9D6A8"/>
</svg>
